<svg width="1200" height="800" viewBox="0 0 1200 800" fill="none" xmlns="http://www.w3.org/2000/svg">
  <rect width="1200" height="800" fill="#0A0A0A"/>

  <!-- Sidebar -->
  <rect x="0" y="0" width="280" height="800" fill="#141414"/>
  <rect x="24" y="24" width="140" height="32" rx="4" fill="#3b82f6"/>
  <text x="48" y="46" fill="white" font-family="system-ui" font-size="14" font-weight="600">PhotoProOS</text>

  <!-- Nav items -->
  <rect x="56" y="94" width="80" height="10" rx="2" fill="#7C7C7C"/>
  <rect x="56" y="122" width="70" height="10" rx="2" fill="#7C7C7C"/>
  <rect x="56" y="150" width="90" height="10" rx="2" fill="#7C7C7C"/>
  <rect x="56" y="178" width="60" height="10" rx="2" fill="#7C7C7C"/>
  <rect x="16" y="204" width="248" height="40" rx="6" fill="#1E1E1E"/>
  <circle cx="40" cy="224" r="8" fill="#f97316"/>
  <rect x="56" y="218" width="80" height="12" rx="2" fill="#ffffff"/>

  <!-- Main content -->
  <text x="320" y="56" fill="#ffffff" font-family="system-ui" font-size="24" font-weight="700">Calendar</text>

  <!-- Month nav -->
  <rect x="320" y="80" width="40" height="40" rx="8" fill="#1E1E1E"/>
  <text x="335" y="106" fill="#ffffff" font-family="system-ui" font-size="18">&lt;</text>
  <text x="380" y="106" fill="#ffffff" font-family="system-ui" font-size="18" font-weight="600">January 2025</text>
  <rect x="540" y="80" width="40" height="40" rx="8" fill="#1E1E1E"/>
  <text x="555" y="106" fill="#ffffff" font-family="system-ui" font-size="18">&gt;</text>

  <rect x="1000" y="80" width="100" height="40" rx="8" fill="#3b82f6"/>
  <text x="1015" y="105" fill="white" font-family="system-ui" font-size="14" font-weight="500">+ Book</text>

  <!-- Calendar grid -->
  <rect x="320" y="150" width="840" height="620" rx="12" fill="#141414" stroke="#262626" stroke-width="1"/>

  <!-- Day headers -->
  <text x="360" y="185" fill="#7C7C7C" font-family="system-ui" font-size="12" font-weight="500">SUN</text>
  <text x="480" y="185" fill="#7C7C7C" font-family="system-ui" font-size="12" font-weight="500">MON</text>
  <text x="600" y="185" fill="#7C7C7C" font-family="system-ui" font-size="12" font-weight="500">TUE</text>
  <text x="720" y="185" fill="#7C7C7C" font-family="system-ui" font-size="12" font-weight="500">WED</text>
  <text x="840" y="185" fill="#7C7C7C" font-family="system-ui" font-size="12" font-weight="500">THU</text>
  <text x="960" y="185" fill="#7C7C7C" font-family="system-ui" font-size="12" font-weight="500">FRI</text>
  <text x="1080" y="185" fill="#7C7C7C" font-family="system-ui" font-size="12" font-weight="500">SAT</text>

  <!-- Week 1 -->
  <rect x="330" y="200" width="110" height="90" rx="0" fill="#0A0A0A" stroke="#262626" stroke-width="0.5"/>
  <rect x="450" y="200" width="110" height="90" rx="0" fill="#0A0A0A" stroke="#262626" stroke-width="0.5"/>
  <rect x="570" y="200" width="110" height="90" rx="0" fill="#0A0A0A" stroke="#262626" stroke-width="0.5"/>
  <text x="580" y="225" fill="#7C7C7C" font-family="system-ui" font-size="14">1</text>
  <rect x="690" y="200" width="110" height="90" rx="0" fill="#0A0A0A" stroke="#262626" stroke-width="0.5"/>
  <text x="700" y="225" fill="#7C7C7C" font-family="system-ui" font-size="14">2</text>
  <rect x="810" y="200" width="110" height="90" rx="0" fill="#0A0A0A" stroke="#262626" stroke-width="0.5"/>
  <text x="820" y="225" fill="#7C7C7C" font-family="system-ui" font-size="14">3</text>
  <rect x="930" y="200" width="110" height="90" rx="0" fill="#0A0A0A" stroke="#262626" stroke-width="0.5"/>
  <text x="940" y="225" fill="#7C7C7C" font-family="system-ui" font-size="14">4</text>
  <rect x="1050" y="200" width="100" height="90" rx="0" fill="#0A0A0A" stroke="#262626" stroke-width="0.5"/>
  <text x="1060" y="225" fill="#7C7C7C" font-family="system-ui" font-size="14">5</text>

  <!-- Week 2 -->
  <rect x="330" y="300" width="110" height="90" rx="0" fill="#0A0A0A" stroke="#262626" stroke-width="0.5"/>
  <text x="340" y="325" fill="#7C7C7C" font-family="system-ui" font-size="14">6</text>
  <rect x="450" y="300" width="110" height="90" rx="0" fill="#0A0A0A" stroke="#262626" stroke-width="0.5"/>
  <text x="460" y="325" fill="#7C7C7C" font-family="system-ui" font-size="14">7</text>
  <rect x="570" y="300" width="110" height="90" rx="0" fill="#0A0A0A" stroke="#262626" stroke-width="0.5"/>
  <text x="580" y="325" fill="#7C7C7C" font-family="system-ui" font-size="14">8</text>
  <rect x="690" y="300" width="110" height="90" rx="0" fill="#0A0A0A" stroke="#262626" stroke-width="0.5"/>
  <text x="700" y="325" fill="#7C7C7C" font-family="system-ui" font-size="14">9</text>
  <rect x="810" y="300" width="110" height="90" rx="0" fill="#0A0A0A" stroke="#262626" stroke-width="0.5"/>
  <text x="820" y="325" fill="#7C7C7C" font-family="system-ui" font-size="14">10</text>
  <rect x="930" y="300" width="110" height="90" rx="0" fill="#0A0A0A" stroke="#262626" stroke-width="0.5"/>
  <text x="940" y="325" fill="#7C7C7C" font-family="system-ui" font-size="14">11</text>
  <rect x="938" y="335" width="94" height="22" rx="4" fill="#3b82f6"/>
  <text x="946" y="350" fill="white" font-family="system-ui" font-size="10">Headshots - TC</text>
  <rect x="1050" y="300" width="100" height="90" rx="0" fill="#0A0A0A" stroke="#262626" stroke-width="0.5"/>
  <text x="1060" y="325" fill="#7C7C7C" font-family="system-ui" font-size="14">12</text>

  <!-- Week 3 (Current) -->
  <rect x="330" y="400" width="110" height="90" rx="0" fill="#0A0A0A" stroke="#262626" stroke-width="0.5"/>
  <text x="340" y="425" fill="#7C7C7C" font-family="system-ui" font-size="14">13</text>
  <rect x="450" y="400" width="110" height="90" rx="0" fill="#0A0A0A" stroke="#262626" stroke-width="0.5"/>
  <text x="460" y="425" fill="#7C7C7C" font-family="system-ui" font-size="14">14</text>
  <rect x="570" y="400" width="110" height="90" rx="0" fill="#1E1E1E" stroke="#3b82f6" stroke-width="2"/>
  <text x="580" y="425" fill="#3b82f6" font-family="system-ui" font-size="14" font-weight="700">15</text>
  <rect x="578" y="435" width="94" height="22" rx="4" fill="#22c55e"/>
  <text x="586" y="450" fill="white" font-family="system-ui" font-size="10">Gallery Review</text>
  <rect x="690" y="400" width="110" height="90" rx="0" fill="#0A0A0A" stroke="#262626" stroke-width="0.5"/>
  <text x="700" y="425" fill="#7C7C7C" font-family="system-ui" font-size="14">16</text>
  <rect x="810" y="400" width="110" height="90" rx="0" fill="#0A0A0A" stroke="#262626" stroke-width="0.5"/>
  <text x="820" y="425" fill="#7C7C7C" font-family="system-ui" font-size="14">17</text>
  <rect x="818" y="435" width="94" height="22" rx="4" fill="#f97316"/>
  <text x="826" y="450" fill="white" font-family="system-ui" font-size="10">Property Shoot</text>
  <rect x="930" y="400" width="110" height="90" rx="0" fill="#0A0A0A" stroke="#262626" stroke-width="0.5"/>
  <text x="940" y="425" fill="#7C7C7C" font-family="system-ui" font-size="14">18</text>
  <rect x="938" y="435" width="94" height="22" rx="4" fill="#8b5cf6"/>
  <text x="952" y="450" fill="white" font-family="system-ui" font-size="10">Wedding</text>
  <rect x="938" y="460" width="94" height="22" rx="4" fill="#8b5cf6" opacity="0.5"/>
  <text x="948" y="475" fill="white" font-family="system-ui" font-size="10">Rehearsal</text>
  <rect x="1050" y="400" width="100" height="90" rx="0" fill="#0A0A0A" stroke="#262626" stroke-width="0.5"/>
  <text x="1060" y="425" fill="#7C7C7C" font-family="system-ui" font-size="14">19</text>

  <!-- Week 4 -->
  <rect x="330" y="500" width="110" height="90" rx="0" fill="#0A0A0A" stroke="#262626" stroke-width="0.5"/>
  <text x="340" y="525" fill="#7C7C7C" font-family="system-ui" font-size="14">20</text>
  <rect x="450" y="500" width="110" height="90" rx="0" fill="#0A0A0A" stroke="#262626" stroke-width="0.5"/>
  <text x="460" y="525" fill="#7C7C7C" font-family="system-ui" font-size="14">21</text>
  <rect x="570" y="500" width="110" height="90" rx="0" fill="#0A0A0A" stroke="#262626" stroke-width="0.5"/>
  <text x="580" y="525" fill="#7C7C7C" font-family="system-ui" font-size="14">22</text>
  <rect x="690" y="500" width="110" height="90" rx="0" fill="#0A0A0A" stroke="#262626" stroke-width="0.5"/>
  <text x="700" y="525" fill="#7C7C7C" font-family="system-ui" font-size="14">23</text>
  <rect x="698" y="535" width="94" height="22" rx="4" fill="#ec4899"/>
  <text x="708" y="550" fill="white" font-family="system-ui" font-size="10">Food Shoot</text>
  <rect x="810" y="500" width="110" height="90" rx="0" fill="#0A0A0A" stroke="#262626" stroke-width="0.5"/>
  <text x="820" y="525" fill="#7C7C7C" font-family="system-ui" font-size="14">24</text>
  <rect x="930" y="500" width="110" height="90" rx="0" fill="#0A0A0A" stroke="#262626" stroke-width="0.5"/>
  <text x="940" y="525" fill="#7C7C7C" font-family="system-ui" font-size="14">25</text>
  <rect x="938" y="535" width="94" height="22" rx="4" fill="#3b82f6"/>
  <text x="948" y="550" fill="white" font-family="system-ui" font-size="10">Corporate</text>
  <rect x="1050" y="500" width="100" height="90" rx="0" fill="#0A0A0A" stroke="#262626" stroke-width="0.5"/>
  <text x="1060" y="525" fill="#7C7C7C" font-family="system-ui" font-size="14">26</text>

  <!-- Week 5 -->
  <rect x="330" y="600" width="110" height="90" rx="0" fill="#0A0A0A" stroke="#262626" stroke-width="0.5"/>
  <text x="340" y="625" fill="#7C7C7C" font-family="system-ui" font-size="14">27</text>
  <rect x="450" y="600" width="110" height="90" rx="0" fill="#0A0A0A" stroke="#262626" stroke-width="0.5"/>
  <text x="460" y="625" fill="#7C7C7C" font-family="system-ui" font-size="14">28</text>
  <rect x="570" y="600" width="110" height="90" rx="0" fill="#0A0A0A" stroke="#262626" stroke-width="0.5"/>
  <text x="580" y="625" fill="#7C7C7C" font-family="system-ui" font-size="14">29</text>
  <rect x="690" y="600" width="110" height="90" rx="0" fill="#0A0A0A" stroke="#262626" stroke-width="0.5"/>
  <text x="700" y="625" fill="#7C7C7C" font-family="system-ui" font-size="14">30</text>
  <rect x="810" y="600" width="110" height="90" rx="0" fill="#0A0A0A" stroke="#262626" stroke-width="0.5"/>
  <text x="820" y="625" fill="#7C7C7C" font-family="system-ui" font-size="14">31</text>
  <rect x="930" y="600" width="110" height="90" rx="0" fill="#0A0A0A" stroke="#262626" stroke-width="0.5"/>
  <rect x="1050" y="600" width="100" height="90" rx="0" fill="#0A0A0A" stroke="#262626" stroke-width="0.5"/>
</svg>