<svg width="1200" height="800" viewBox="0 0 1200 800" fill="none" xmlns="http://www.w3.org/2000/svg">
  <rect width="1200" height="800" fill="#0A0A0A"/>

  <!-- Sidebar -->
  <rect x="0" y="0" width="280" height="800" fill="#141414"/>
  <rect x="24" y="24" width="140" height="32" rx="4" fill="#3b82f6"/>
  <text x="48" y="46" fill="white" font-family="system-ui" font-size="14" font-weight="600">PhotoProOS</text>

  <!-- Nav items -->
  <rect x="16" y="80" width="248" height="40" rx="6" fill="#1E1E1E"/>
  <circle cx="40" cy="100" r="8" fill="#3b82f6"/>
  <rect x="56" y="94" width="80" height="12" rx="2" fill="#ffffff"/>

  <rect x="56" y="134" width="100" height="10" rx="2" fill="#7C7C7C"/>
  <rect x="56" y="162" width="70" height="10" rx="2" fill="#7C7C7C"/>
  <rect x="56" y="190" width="90" height="10" rx="2" fill="#7C7C7C"/>
  <rect x="56" y="218" width="60" height="10" rx="2" fill="#7C7C7C"/>
  <rect x="56" y="246" width="85" height="10" rx="2" fill="#7C7C7C"/>

  <!-- Main content area -->
  <text x="320" y="56" fill="#ffffff" font-family="system-ui" font-size="24" font-weight="700">Dashboard</text>
  <text x="320" y="80" fill="#7C7C7C" font-family="system-ui" font-size="14">Welcome back! Here's your business overview.</text>

  <!-- Metric cards row -->
  <rect x="320" y="110" width="200" height="120" rx="12" fill="#141414" stroke="#262626" stroke-width="1"/>
  <text x="340" y="145" fill="#7C7C7C" font-family="system-ui" font-size="12">Total Revenue</text>
  <text x="340" y="185" fill="#ffffff" font-family="system-ui" font-size="32" font-weight="700">$24,580</text>
  <text x="340" y="210" fill="#22c55e" font-family="system-ui" font-size="12">+12.5% from last month</text>

  <rect x="540" y="110" width="200" height="120" rx="12" fill="#141414" stroke="#262626" stroke-width="1"/>
  <text x="560" y="145" fill="#7C7C7C" font-family="system-ui" font-size="12">Active Projects</text>
  <text x="560" y="185" fill="#ffffff" font-family="system-ui" font-size="32" font-weight="700">18</text>
  <text x="560" y="210" fill="#3b82f6" font-family="system-ui" font-size="12">4 pending delivery</text>

  <rect x="760" y="110" width="200" height="120" rx="12" fill="#141414" stroke="#262626" stroke-width="1"/>
  <text x="780" y="145" fill="#7C7C7C" font-family="system-ui" font-size="12">Clients</text>
  <text x="780" y="185" fill="#ffffff" font-family="system-ui" font-size="32" font-weight="700">142</text>
  <text x="780" y="210" fill="#22c55e" font-family="system-ui" font-size="12">+8 new this month</text>

  <rect x="980" y="110" width="180" height="120" rx="12" fill="#141414" stroke="#262626" stroke-width="1"/>
  <text x="1000" y="145" fill="#7C7C7C" font-family="system-ui" font-size="12">Photo Downloads</text>
  <text x="1000" y="185" fill="#ffffff" font-family="system-ui" font-size="32" font-weight="700">1.2K</text>
  <text x="1000" y="210" fill="#A7A7A7" font-family="system-ui" font-size="12">This week</text>

  <!-- Chart area -->
  <rect x="320" y="260" width="520" height="300" rx="12" fill="#141414" stroke="#262626" stroke-width="1"/>
  <text x="340" y="295" fill="#ffffff" font-family="system-ui" font-size="16" font-weight="600">Revenue Overview</text>

  <!-- Simple bar chart -->
  <rect x="360" y="480" width="40" height="60" rx="4" fill="#3b82f6"/>
  <rect x="420" y="440" width="40" height="100" rx="4" fill="#3b82f6"/>
  <rect x="480" y="400" width="40" height="140" rx="4" fill="#3b82f6"/>
  <rect x="540" y="360" width="40" height="180" rx="4" fill="#3b82f6"/>
  <rect x="600" y="390" width="40" height="150" rx="4" fill="#3b82f6"/>
  <rect x="660" y="350" width="40" height="190" rx="4" fill="#3b82f6"/>
  <rect x="720" y="320" width="40" height="220" rx="4" fill="#22c55e"/>

  <!-- Activity section -->
  <rect x="860" y="260" width="300" height="300" rx="12" fill="#141414" stroke="#262626" stroke-width="1"/>
  <text x="880" y="295" fill="#ffffff" font-family="system-ui" font-size="16" font-weight="600">Recent Activity</text>

  <!-- Activity items -->
  <rect x="880" y="320" width="260" height="50" rx="6" fill="#1E1E1E"/>
  <circle cx="905" cy="345" r="12" fill="#22c55e" opacity="0.2"/>
  <rect x="925" y="335" width="120" height="10" rx="2" fill="#ffffff"/>
  <rect x="925" y="350" width="80" height="8" rx="2" fill="#7C7C7C"/>

  <rect x="880" y="380" width="260" height="50" rx="6" fill="#1E1E1E"/>
  <circle cx="905" cy="405" r="12" fill="#3b82f6" opacity="0.2"/>
  <rect x="925" y="395" width="140" height="10" rx="2" fill="#ffffff"/>
  <rect x="925" y="410" width="90" height="8" rx="2" fill="#7C7C7C"/>

  <rect x="880" y="440" width="260" height="50" rx="6" fill="#1E1E1E"/>
  <circle cx="905" cy="465" r="12" fill="#8b5cf6" opacity="0.2"/>
  <rect x="925" y="455" width="100" height="10" rx="2" fill="#ffffff"/>
  <rect x="925" y="470" width="70" height="8" rx="2" fill="#7C7C7C"/>

  <!-- Upcoming section -->
  <rect x="320" y="590" width="840" height="180" rx="12" fill="#141414" stroke="#262626" stroke-width="1"/>
  <text x="340" y="625" fill="#ffffff" font-family="system-ui" font-size="16" font-weight="600">Upcoming Shoots</text>

  <!-- Calendar items -->
  <rect x="340" y="650" width="190" height="100" rx="8" fill="#1E1E1E"/>
  <rect x="355" y="665" width="80" height="10" rx="2" fill="#ffffff"/>
  <rect x="355" y="685" width="120" height="8" rx="2" fill="#7C7C7C"/>
  <rect x="355" y="720" width="60" height="20" rx="4" fill="#3b82f6" opacity="0.2"/>
  <text x="365" y="735" fill="#3b82f6" font-family="system-ui" font-size="10">Tomorrow</text>

  <rect x="550" y="650" width="190" height="100" rx="8" fill="#1E1E1E"/>
  <rect x="565" y="665" width="90" height="10" rx="2" fill="#ffffff"/>
  <rect x="565" y="685" width="100" height="8" rx="2" fill="#7C7C7C"/>
  <rect x="565" y="720" width="50" height="20" rx="4" fill="#f97316" opacity="0.2"/>
  <text x="575" y="735" fill="#f97316" font-family="system-ui" font-size="10">Jan 18</text>

  <rect x="760" y="650" width="190" height="100" rx="8" fill="#1E1E1E"/>
  <rect x="775" y="665" width="100" height="10" rx="2" fill="#ffffff"/>
  <rect x="775" y="685" width="110" height="8" rx="2" fill="#7C7C7C"/>
  <rect x="775" y="720" width="50" height="20" rx="4" fill="#7C7C7C" opacity="0.2"/>
  <text x="785" y="735" fill="#7C7C7C" font-family="system-ui" font-size="10">Jan 22</text>
</svg>