<svg width="1200" height="800" viewBox="0 0 1200 800" fill="none" xmlns="http://www.w3.org/2000/svg">
  <rect width="1200" height="800" fill="#0A0A0A"/>

  <!-- Sidebar -->
  <rect x="0" y="0" width="280" height="800" fill="#141414"/>
  <rect x="24" y="24" width="140" height="32" rx="4" fill="#3b82f6"/>
  <text x="48" y="46" fill="white" font-family="system-ui" font-size="14" font-weight="600">PhotoProOS</text>

  <!-- Nav items -->
  <rect x="56" y="94" width="80" height="10" rx="2" fill="#7C7C7C"/>
  <rect x="16" y="120" width="248" height="40" rx="6" fill="#1E1E1E"/>
  <circle cx="40" cy="140" r="8" fill="#3b82f6"/>
  <rect x="56" y="134" width="80" height="12" rx="2" fill="#ffffff"/>

  <rect x="56" y="178" width="70" height="10" rx="2" fill="#7C7C7C"/>
  <rect x="56" y="206" width="90" height="10" rx="2" fill="#7C7C7C"/>
  <rect x="56" y="234" width="60" height="10" rx="2" fill="#7C7C7C"/>

  <!-- Main content area -->
  <text x="320" y="56" fill="#ffffff" font-family="system-ui" font-size="24" font-weight="700">Galleries</text>

  <!-- Search and filters -->
  <rect x="320" y="80" width="300" height="40" rx="8" fill="#1E1E1E" stroke="#262626" stroke-width="1"/>
  <text x="340" y="105" fill="#7C7C7C" font-family="system-ui" font-size="14">Search galleries...</text>

  <rect x="640" y="80" width="100" height="40" rx="8" fill="#1E1E1E" stroke="#262626" stroke-width="1"/>
  <text x="660" y="105" fill="#7C7C7C" font-family="system-ui" font-size="14">All Status</text>

  <rect x="1060" y="80" width="100" height="40" rx="8" fill="#3b82f6"/>
  <text x="1078" y="105" fill="white" font-family="system-ui" font-size="14" font-weight="500">+ New</text>

  <!-- Gallery grid -->
  <!-- Row 1 -->
  <rect x="320" y="150" width="260" height="280" rx="12" fill="#141414" stroke="#262626" stroke-width="1"/>
  <rect x="320" y="150" width="260" height="160" rx="12" fill="#1E1E1E"/>
  <rect x="328" y="158" width="244" height="144" rx="8" fill="linear-gradient(135deg, #3b82f6 0%, #8b5cf6 100%)"/>
  <rect x="328" y="158" width="244" height="144" rx="8" fill="#2563eb" opacity="0.8"/>
  <text x="400" y="240" fill="white" font-family="system-ui" font-size="40" font-weight="700" opacity="0.3">IMG</text>
  <rect x="336" y="320" width="150" height="14" rx="2" fill="#ffffff"/>
  <text x="336" y="332" fill="#ffffff" font-family="system-ui" font-size="14" font-weight="600">Johnson Wedding</text>
  <rect x="336" y="350" width="100" height="10" rx="2" fill="#7C7C7C"/>
  <rect x="336" y="380" width="70" height="24" rx="4" fill="#22c55e" opacity="0.2"/>
  <text x="348" y="397" fill="#22c55e" font-family="system-ui" font-size="11">Delivered</text>
  <rect x="416" y="380" width="60" height="24" rx="4" fill="#1E1E1E"/>
  <text x="426" y="397" fill="#A7A7A7" font-family="system-ui" font-size="11">248 pics</text>

  <rect x="600" y="150" width="260" height="280" rx="12" fill="#141414" stroke="#262626" stroke-width="1"/>
  <rect x="600" y="150" width="260" height="160" rx="12" fill="#1E1E1E"/>
  <rect x="608" y="158" width="244" height="144" rx="8" fill="#14b8a6" opacity="0.8"/>
  <text x="680" y="240" fill="white" font-family="system-ui" font-size="40" font-weight="700" opacity="0.3">IMG</text>
  <rect x="616" y="320" width="140" height="14" rx="2" fill="#ffffff"/>
  <rect x="616" y="350" width="90" height="10" rx="2" fill="#7C7C7C"/>
  <rect x="616" y="380" width="70" height="24" rx="4" fill="#3b82f6" opacity="0.2"/>
  <text x="628" y="397" fill="#3b82f6" font-family="system-ui" font-size="11">Editing</text>
  <rect x="696" y="380" width="60" height="24" rx="4" fill="#1E1E1E"/>
  <text x="706" y="397" fill="#A7A7A7" font-family="system-ui" font-size="11">156 pics</text>

  <rect x="880" y="150" width="260" height="280" rx="12" fill="#141414" stroke="#262626" stroke-width="1"/>
  <rect x="880" y="150" width="260" height="160" rx="12" fill="#1E1E1E"/>
  <rect x="888" y="158" width="244" height="144" rx="8" fill="#f97316" opacity="0.8"/>
  <text x="960" y="240" fill="white" font-family="system-ui" font-size="40" font-weight="700" opacity="0.3">IMG</text>
  <rect x="896" y="320" width="160" height="14" rx="2" fill="#ffffff"/>
  <rect x="896" y="350" width="110" height="10" rx="2" fill="#7C7C7C"/>
  <rect x="896" y="380" width="80" height="24" rx="4" fill="#f97316" opacity="0.2"/>
  <text x="908" y="397" fill="#f97316" font-family="system-ui" font-size="11">In Review</text>
  <rect x="986" y="380" width="60" height="24" rx="4" fill="#1E1E1E"/>
  <text x="996" y="397" fill="#A7A7A7" font-family="system-ui" font-size="11">89 pics</text>

  <!-- Row 2 -->
  <rect x="320" y="460" width="260" height="280" rx="12" fill="#141414" stroke="#262626" stroke-width="1"/>
  <rect x="320" y="460" width="260" height="160" rx="12" fill="#1E1E1E"/>
  <rect x="328" y="468" width="244" height="144" rx="8" fill="#8b5cf6" opacity="0.8"/>
  <text x="400" y="550" fill="white" font-family="system-ui" font-size="40" font-weight="700" opacity="0.3">IMG</text>
  <rect x="336" y="630" width="130" height="14" rx="2" fill="#ffffff"/>
  <rect x="336" y="660" width="80" height="10" rx="2" fill="#7C7C7C"/>
  <rect x="336" y="690" width="70" height="24" rx="4" fill="#22c55e" opacity="0.2"/>
  <text x="348" y="707" fill="#22c55e" font-family="system-ui" font-size="11">Delivered</text>
  <rect x="416" y="690" width="60" height="24" rx="4" fill="#1E1E1E"/>
  <text x="426" y="707" fill="#A7A7A7" font-family="system-ui" font-size="11">312 pics</text>

  <rect x="600" y="460" width="260" height="280" rx="12" fill="#141414" stroke="#262626" stroke-width="1"/>
  <rect x="600" y="460" width="260" height="160" rx="12" fill="#1E1E1E"/>
  <rect x="608" y="468" width="244" height="144" rx="8" fill="#ec4899" opacity="0.8"/>
  <text x="680" y="550" fill="white" font-family="system-ui" font-size="40" font-weight="700" opacity="0.3">IMG</text>
  <rect x="616" y="630" width="120" height="14" rx="2" fill="#ffffff"/>
  <rect x="616" y="660" width="100" height="10" rx="2" fill="#7C7C7C"/>
  <rect x="616" y="690" width="80" height="24" rx="4" fill="#7C7C7C" opacity="0.2"/>
  <text x="628" y="707" fill="#7C7C7C" font-family="system-ui" font-size="11">Scheduled</text>
  <rect x="706" y="690" width="60" height="24" rx="4" fill="#1E1E1E"/>
  <text x="716" y="707" fill="#A7A7A7" font-family="system-ui" font-size="11">0 pics</text>

  <rect x="880" y="460" width="260" height="280" rx="12" fill="#141414" stroke="#262626" stroke-width="1"/>
  <rect x="880" y="460" width="260" height="160" rx="12" fill="#1E1E1E"/>
  <rect x="888" y="468" width="244" height="144" rx="8" fill="#22c55e" opacity="0.8"/>
  <text x="960" y="550" fill="white" font-family="system-ui" font-size="40" font-weight="700" opacity="0.3">IMG</text>
  <rect x="896" y="630" width="140" height="14" rx="2" fill="#ffffff"/>
  <rect x="896" y="660" width="90" height="10" rx="2" fill="#7C7C7C"/>
  <rect x="896" y="690" width="70" height="24" rx="4" fill="#22c55e" opacity="0.2"/>
  <text x="908" y="707" fill="#22c55e" font-family="system-ui" font-size="11">Delivered</text>
  <rect x="976" y="690" width="60" height="24" rx="4" fill="#1E1E1E"/>
  <text x="986" y="707" fill="#A7A7A7" font-family="system-ui" font-size="11">175 pics</text>
</svg>