<svg width="1200" height="800" viewBox="0 0 1200 800" fill="none" xmlns="http://www.w3.org/2000/svg">
  <rect width="1200" height="800" fill="#0A0A0A"/>

  <!-- Sidebar -->
  <rect x="0" y="0" width="280" height="800" fill="#141414"/>
  <rect x="24" y="24" width="140" height="32" rx="4" fill="#3b82f6"/>
  <text x="48" y="46" fill="white" font-family="system-ui" font-size="14" font-weight="600">PhotoProOS</text>

  <!-- Nav items -->
  <rect x="56" y="94" width="80" height="10" rx="2" fill="#7C7C7C"/>
  <rect x="16" y="120" width="248" height="40" rx="6" fill="#1E1E1E"/>
  <circle cx="40" cy="140" r="8" fill="#3b82f6"/>
  <rect x="56" y="134" width="80" height="12" rx="2" fill="#ffffff"/>

  <!-- Main content -->
  <text x="320" y="48" fill="#7C7C7C" font-family="system-ui" font-size="14">Galleries /</text>
  <text x="390" y="48" fill="#ffffff" font-family="system-ui" font-size="14">Johnson Wedding</text>

  <!-- Header section -->
  <rect x="320" y="70" width="840" height="100" rx="12" fill="#141414" stroke="#262626" stroke-width="1"/>
  <rect x="340" y="90" width="60" height="60" rx="8" fill="#2563eb"/>
  <text x="355" y="130" fill="white" font-family="system-ui" font-size="24" font-weight="700">JW</text>
  <text x="420" y="115" fill="#ffffff" font-family="system-ui" font-size="20" font-weight="600">Johnson Wedding</text>
  <text x="420" y="140" fill="#7C7C7C" font-family="system-ui" font-size="14">December 14, 2024 - Oak Valley Estate</text>

  <rect x="1000" y="100" width="100" height="36" rx="6" fill="#22c55e"/>
  <text x="1018" y="124" fill="white" font-family="system-ui" font-size="14" font-weight="500">Delivered</text>

  <!-- Stats row -->
  <rect x="320" y="190" width="180" height="70" rx="8" fill="#141414" stroke="#262626" stroke-width="1"/>
  <text x="340" y="220" fill="#7C7C7C" font-family="system-ui" font-size="12">Total Photos</text>
  <text x="340" y="245" fill="#ffffff" font-family="system-ui" font-size="24" font-weight="700">248</text>

  <rect x="520" y="190" width="180" height="70" rx="8" fill="#141414" stroke="#262626" stroke-width="1"/>
  <text x="540" y="220" fill="#7C7C7C" font-family="system-ui" font-size="12">Downloads</text>
  <text x="540" y="245" fill="#ffffff" font-family="system-ui" font-size="24" font-weight="700">186</text>

  <rect x="720" y="190" width="180" height="70" rx="8" fill="#141414" stroke="#262626" stroke-width="1"/>
  <text x="740" y="220" fill="#7C7C7C" font-family="system-ui" font-size="12">Revenue</text>
  <text x="740" y="245" fill="#ffffff" font-family="system-ui" font-size="24" font-weight="700">$3,200</text>

  <rect x="920" y="190" width="180" height="70" rx="8" fill="#141414" stroke="#262626" stroke-width="1"/>
  <text x="940" y="220" fill="#7C7C7C" font-family="system-ui" font-size="12">Client View</text>
  <text x="940" y="245" fill="#ffffff" font-family="system-ui" font-size="24" font-weight="700">42</text>

  <!-- Photo grid section -->
  <text x="320" y="305" fill="#ffffff" font-family="system-ui" font-size="16" font-weight="600">All Photos</text>
  <rect x="1020" y="285" width="40" height="30" rx="4" fill="#1E1E1E"/>
  <rect x="1070" y="285" width="40" height="30" rx="4" fill="#3b82f6"/>

  <!-- Photo grid -->
  <rect x="320" y="330" width="160" height="160" rx="8" fill="#1E1E1E"/>
  <rect x="328" y="338" width="144" height="144" rx="6" fill="#2563eb" opacity="0.6"/>

  <rect x="500" y="330" width="160" height="160" rx="8" fill="#1E1E1E"/>
  <rect x="508" y="338" width="144" height="144" rx="6" fill="#14b8a6" opacity="0.6"/>

  <rect x="680" y="330" width="160" height="160" rx="8" fill="#1E1E1E"/>
  <rect x="688" y="338" width="144" height="144" rx="6" fill="#8b5cf6" opacity="0.6"/>

  <rect x="860" y="330" width="160" height="160" rx="8" fill="#1E1E1E"/>
  <rect x="868" y="338" width="144" height="144" rx="6" fill="#f97316" opacity="0.6"/>

  <rect x="1040" y="330" width="120" height="160" rx="8" fill="#1E1E1E"/>
  <rect x="1048" y="338" width="104" height="144" rx="6" fill="#ec4899" opacity="0.6"/>

  <!-- Row 2 -->
  <rect x="320" y="510" width="160" height="160" rx="8" fill="#1E1E1E"/>
  <rect x="328" y="518" width="144" height="144" rx="6" fill="#22c55e" opacity="0.6"/>

  <rect x="500" y="510" width="160" height="160" rx="8" fill="#1E1E1E"/>
  <rect x="508" y="518" width="144" height="144" rx="6" fill="#3b82f6" opacity="0.6"/>

  <rect x="680" y="510" width="160" height="160" rx="8" fill="#1E1E1E"/>
  <rect x="688" y="518" width="144" height="144" rx="6" fill="#f97316" opacity="0.6"/>

  <rect x="860" y="510" width="160" height="160" rx="8" fill="#1E1E1E"/>
  <rect x="868" y="518" width="144" height="144" rx="6" fill="#8b5cf6" opacity="0.6"/>

  <rect x="1040" y="510" width="120" height="160" rx="8" fill="#1E1E1E"/>
  <rect x="1048" y="518" width="104" height="144" rx="6" fill="#14b8a6" opacity="0.6"/>

  <!-- Pagination -->
  <rect x="560" y="710" width="80" height="35" rx="6" fill="#1E1E1E"/>
  <text x="590" y="733" fill="#ffffff" font-family="system-ui" font-size="14">1</text>
  <rect x="660" y="710" width="35" height="35" rx="6" fill="#1E1E1E"/>
  <text x="672" y="733" fill="#7C7C7C" font-family="system-ui" font-size="14">2</text>
  <rect x="715" y="710" width="35" height="35" rx="6" fill="#1E1E1E"/>
  <text x="727" y="733" fill="#7C7C7C" font-family="system-ui" font-size="14">3</text>
</svg>