<svg width="160" height="20" viewBox="0 0 160 20" fill="none" xmlns="http://www.w3.org/2000/svg">
<path d="M5.81808 9.06622C5.69967 8.9111 5.50873 8.82926 5.31474 8.85048C5.12075 8.87169 4.95201 8.99288 4.86993 9.16992L0.0610438 18.7847C-0.0285034 18.9632 -0.0190146 19.1754 0.0861075 19.3451C0.19123 19.5149 0.376922 19.618 0.576599 19.6173H7.2729C7.49238 19.6231 7.6946 19.4988 7.78845 19.3003C9.22845 16.3077 8.35438 11.7744 5.81808 9.06622Z" fill="#FAFAFA"/>
<path d="M9.34699 0.307717C6.90003 4.0591 6.61285 8.82288 8.59143 12.8411L11.8359 19.3003C11.9337 19.4952 12.1334 19.618 12.3514 19.6173H19.0477C19.2458 19.6149 19.4287 19.5106 19.5317 19.3414C19.6347 19.1722 19.6433 18.9618 19.5544 18.7848L10.3248 0.307717C10.2346 0.119649 10.0445 0 9.83588 0C9.62729 0 9.4372 0.119649 9.34699 0.307717Z" fill="#FAFAFA"/>
<path d="M100.336 14.8561C100.336 17.8515 98.544 19.8628 94.0259 19.863C90.823 19.863 89.104 19.1494 87.8032 18.5124V14.6306C89.7183 15.7035 91.8692 16.2862 94.064 16.3259C95.895 16.3259 96.434 15.81 96.4341 14.9509C96.4341 14.0916 95.8947 13.6737 93.3169 13.1345C89.2675 12.3539 88.0431 10.6333 87.9058 8.46844L100.336 14.8561ZM94.2065 3.24091C96.0444 3.20685 97.8666 3.58475 99.5396 4.34637V8.04657C97.7944 7.26142 95.954 6.69598 94.0874 6.69598C92.5528 6.69603 91.7174 7.08702 91.7173 8.0202C91.7173 8.76685 92.2831 9.28298 94.6147 9.79852C98.7078 10.6797 100.241 11.9498 100.333 14.5954L87.8716 8.02899C87.8717 5.05728 90.0318 3.24091 94.2065 3.24091Z" fill="#FAFAFA"/>
<path d="M145.931 3.487V19.6174H149.368V7.31811L150.817 10.5833L155.679 19.6174H159.999V3.487H156.562V13.8989L155.261 10.8766L151.356 3.487H145.931Z" fill="#FAFAFA"/>
<path d="M120.313 3.487H124.07V19.6174H120.313V3.487Z" fill="#FAFAFA"/>
<path d="M115.978 14.8559C115.978 12.0322 114.482 10.7077 110.256 9.79811C107.925 9.28256 107.359 8.767 107.359 8.02033C107.359 7.087 108.194 6.69589 109.729 6.69589C111.596 6.69589 113.436 7.26182 115.181 8.047V4.34626C113.508 3.58458 111.685 3.20696 109.848 3.24107C105.673 3.24107 103.513 5.05737 103.513 8.02922C103.513 10.3996 104.618 12.3018 108.938 13.1344C111.516 13.6737 112.055 14.0914 112.055 14.9507C112.055 15.81 111.516 16.3255 109.685 16.3255C107.49 16.2859 105.339 15.7036 103.424 14.6307V18.5122C104.725 19.1492 106.443 19.8633 109.646 19.8633C114.165 19.8633 115.957 17.8514 115.957 14.8559" fill="#FAFAFA"/>
<path d="M58.7129 3.487V19.6174H66.4344L67.6492 16.1329H62.4936V3.487H58.7129Z" fill="#FAFAFA"/>
<path d="M43.4565 3.487V6.97441H47.6314V19.6174H51.4121V6.97441H55.8802V3.487H43.4565Z" fill="#FAFAFA"/>
<path d="M37.9756 3.487L43.6113 19.6179H39.3145L38.5176 16.9001C36.5505 17.4794 34.4583 17.4793 32.4912 16.9001L31.7031 19.6179H27.3916L33.0215 3.487H37.9756ZM33.4238 13.697C34.0974 13.8944 34.7961 13.9948 35.498 13.9938C36.2 13.9948 36.8986 13.8944 37.5723 13.697L35.498 6.65399L33.4238 13.697Z" fill="#FAFAFA"/>
<path d="M79.7441 3.487L85.3672 19.6179H81.0713L80.2744 16.9001C78.3111 17.477 76.2231 17.477 74.2598 16.9001L73.4561 19.6179H69.1602L74.79 3.487H79.7441ZM75.1924 13.697C75.8659 13.8944 76.5647 13.9948 77.2666 13.9938C77.9686 13.9948 78.6672 13.8944 79.3408 13.697L77.2666 6.65399L75.1924 13.697Z" fill="#FAFAFA"/>
<path d="M137.605 3.487L143.228 19.6179H138.932L138.135 16.9001C136.172 17.477 134.084 17.477 132.121 16.9001L131.317 19.6179H127.021L132.651 3.487H137.605ZM133.053 13.697C133.727 13.8944 134.426 13.9948 135.127 13.9938C135.829 13.9948 136.528 13.8944 137.202 13.697L135.127 6.65399L133.053 13.697Z" fill="#FAFAFA"/>
</svg>
