<svg width="132" height="32" viewBox="0 0 132 32" fill="none" xmlns="http://www.w3.org/2000/svg">
<rect x="104" y="4" width="8" height="27" fill="#FAFAFA"/>
<rect x="93" y="4" width="8" height="27" fill="#FAFAFA"/>
<path fill-rule="evenodd" clip-rule="evenodd" d="M85.4995 13C87.4324 13 89 11.4329 89 9.50071C89 7.56802 87.4324 6 85.4995 6C83.5667 6 82 7.56802 82 9.50071C82 11.4329 83.5667 13 85.4995 13Z" fill="#FAFAFA"/>
<rect x="82" y="14" width="8" height="17" fill="#FAFAFA"/>
<path fill-rule="evenodd" clip-rule="evenodd" d="M71.7759 21.4543L69.2737 14H61L67.3694 31H74.5132L81 14.0569L74.3347 14.0631L71.7759 21.4543Z" fill="#FAFAFA"/>
<path fill-rule="evenodd" clip-rule="evenodd" d="M36.9044 14.2619C35.1806 14.2619 33.7085 15.2623 33.103 16.6753C33.103 16.6753 33.0594 16.7024 33.0081 16.5736C32.9484 16.4473 32.9294 16.3106 32.9294 16.3106C32.9294 15.6708 32.9317 14 32.9317 14H24V31H32.9317L32.9294 19.8192C32.9294 19.8192 32.9294 19.7112 32.9517 19.6277C32.9735 19.5385 33.0349 19.479 33.0349 19.479C33.137 19.6757 33.2537 19.8656 33.3759 20.0514C33.4869 20.233 33.6142 20.4005 33.7548 20.5591C33.9585 20.7981 34.1867 21.0225 34.449 21.2177L34.4334 21.1655C35.1198 21.6575 35.9758 21.9451 36.9044 21.9451C39.1657 21.9451 41 20.2273 41 18.1045C41 15.9829 39.1657 14.2619 36.9044 14.2619Z" fill="#FAFAFA"/>
<path fill-rule="evenodd" clip-rule="evenodd" d="M13.2426 22.8469C12.2726 24.2261 10.3592 24.1172 8.83385 24.1068V17.908C10.4111 17.9158 12.2406 17.6321 13.2426 18.8947C13.8341 20.0645 13.8341 21.7061 13.2426 22.8469ZM8.83385 6.23775C9.57215 6.20197 10.4389 6.21286 11.1484 6.2393C12.0036 6.32797 12.8017 6.76715 13.1556 7.61493C13.5688 8.37611 13.5106 9.55055 13.0654 10.2827C12.0356 11.6194 10.4578 11.425 8.83385 11.4597V6.23775ZM22.9899 21.1482C22.7807 18.5738 21.5826 15.5726 18.6283 14.6968C19.2696 14.4977 19.8139 13.6702 20.2051 13.2792C22.2679 10.9853 22.6659 7.00204 21.4237 4.13205C20.0058 1.02459 16.6405 0.263406 13.5688 0H0V31H13.7937C15.7113 30.9134 17.4653 30.4934 19.0898 29.6441C22.1945 27.9465 23.109 24.546 22.9899 21.1482Z" fill="#FAFAFA"/>
<path fill-rule="evenodd" clip-rule="evenodd" d="M48.3617 19.9903C50.8546 17.8978 53.1196 19.9779 53.1196 19.9779L47.9091 24.2558C47.9091 24.2558 46.1213 21.8699 48.3617 19.9903ZM50.5221 26.7694L60 18.948C58.3959 15.9504 55.2918 14 50.9593 14C45.4757 14 41 18.1186 41 23.0582C41 27.9987 45.4439 32 50.9264 32C54.8043 32 57.5707 30.6945 59.961 27.9082L57.0437 24.6205C54.4148 27.249 51.9835 27.8369 50.5221 26.7694Z" fill="#FAFAFA"/>
<path fill-rule="evenodd" clip-rule="evenodd" d="M120.365 19.9903C122.855 17.8978 125.121 19.9779 125.121 19.9779L119.911 24.2558C119.911 24.2558 118.123 21.8699 120.365 19.9903ZM122.522 26.7694L132 18.948C130.396 15.9504 127.295 14 122.961 14C117.479 14 113 18.1186 113 23.0582C113 27.9987 117.448 32 122.93 32C126.806 32 129.573 30.6945 131.964 27.9082L129.047 24.6205C126.419 27.249 123.987 27.8369 122.522 26.7694Z" fill="#FAFAFA"/>
</svg>
