<svg width="160" height="72" viewBox="0 0 160 72" fill="none" xmlns="http://www.w3.org/2000/svg">
<g clip-path="url(#clip0_3566_152)">
<path d="M146.088 48.5105C144.201 48.5105 142.562 48.1531 141.172 47.4382C139.78 46.7105 138.695 45.6202 137.917 44.1674C137.15 42.7145 136.766 40.915 136.767 38.7687C136.767 36.7287 137.168 34.9702 137.97 33.4934C138.772 32.0045 139.88 30.8731 141.294 30.0991C142.709 29.326 144.319 28.9394 146.123 28.9394C147.856 28.9394 149.394 29.3144 150.739 30.0644C152.083 30.8152 153.126 31.9055 153.868 33.3352C154.624 34.765 155.001 36.4767 155.001 38.4704C155.001 39.1852 154.995 39.7535 154.983 40.1752H140.888V36.4827H151.569L149.553 37.1692C149.553 36.2075 149.412 35.4044 149.129 34.7598C148.858 34.1032 148.457 33.6108 147.927 33.2825C147.397 32.9542 146.754 32.7901 145.999 32.7901C145.209 32.7901 144.513 32.9834 143.912 33.37C143.323 33.7454 142.863 34.3081 142.533 35.0581C142.214 35.809 142.055 36.712 142.055 37.7671V39.5774C142.055 40.6557 142.22 41.5702 142.55 42.3211C142.88 43.072 143.352 43.6402 143.965 44.026C144.578 44.4014 145.304 44.5891 146.141 44.5891C147.061 44.5891 147.821 44.3547 148.422 43.8858C149.024 43.4058 149.401 42.7317 149.553 41.8634H154.912C154.747 43.2228 154.282 44.4014 153.515 45.3991C152.76 46.3942 151.752 47.1614 150.491 47.7005C149.229 48.2405 147.761 48.5105 146.088 48.5105ZM129.806 22.7847H135.165V48.0001H129.806V22.7847ZM120.687 48.5105C119.674 48.5105 118.766 48.3348 117.964 47.9834C117.171 47.6279 116.479 47.0839 115.947 46.3994C115.394 45.6845 114.981 44.8055 114.709 43.7624L115.276 43.9205V48.0001H109.97V29.4485H115.329V33.5988L114.728 33.7042C114.999 32.7082 115.412 31.8584 115.965 31.1547C116.531 30.4398 117.221 29.8947 118.034 29.5192C118.848 29.1335 119.762 28.9402 120.775 28.9394C122.297 28.9394 123.618 29.332 124.737 30.1171C125.858 30.9014 126.719 32.0328 127.32 33.5114C127.921 34.9771 128.221 36.718 128.221 38.734C128.221 40.7388 127.915 42.4792 127.302 43.9552C126.69 45.421 125.811 46.5464 124.666 47.3315C123.535 48.1175 122.209 48.5105 120.687 48.5105ZM119.025 44.4477C119.826 44.4477 120.499 44.2132 121.042 43.7444C121.595 43.2755 122.008 42.6134 122.279 41.758C122.562 40.9017 122.703 39.8937 122.703 38.734C122.703 37.5734 122.562 36.565 122.279 35.7087C122.008 34.8541 121.595 34.192 121.042 33.7222C120.499 33.2414 119.826 33.001 119.025 33.001C118.235 33.001 117.557 33.241 116.992 33.721C116.437 34.1898 116.018 34.8584 115.735 35.7267C115.452 36.5821 115.311 37.5845 115.311 38.734C115.311 39.8937 115.452 40.9017 115.735 41.758C116.019 42.6134 116.438 43.2755 116.992 43.7444C117.557 44.2132 118.235 44.4477 119.025 44.4477ZM109.97 22.7847H115.329V29.4485H109.97V22.7847ZM96.5194 48.5105C95.3521 48.5105 94.3026 48.2817 93.3707 47.824C92.4757 47.3894 91.7219 46.713 91.1957 45.8722C90.6767 45.0177 90.4172 44.0212 90.4172 42.883C90.4172 41.1481 90.9301 39.8238 91.956 38.9101C92.9819 37.9844 94.4616 37.3801 96.3952 37.0972L99.6319 36.6408C100.28 36.5465 100.793 36.4295 101.171 36.2898C101.547 36.1484 101.824 35.9607 102.001 35.7267C102.178 35.4807 102.267 35.17 102.267 34.7945C102.267 34.4088 102.161 34.0574 101.948 33.7402C101.747 33.412 101.441 33.154 101.03 32.9662C100.628 32.7665 100.138 32.6667 99.5607 32.6667C98.6418 32.6667 97.9047 32.9071 97.3495 33.388C96.7961 33.8568 96.4957 34.5018 96.4482 35.323H90.9138C90.9603 34.0801 91.3375 32.9778 92.0452 32.0161C92.7642 31.0441 93.7603 30.2881 95.0336 29.7481C96.3069 29.2081 97.781 28.9385 99.456 28.9394C101.212 28.9394 102.697 29.2265 103.911 29.8008C105.126 30.364 106.04 31.1727 106.652 32.227C107.277 33.2821 107.59 34.5421 107.59 36.007V43.7444C107.59 44.5775 107.649 45.3515 107.767 46.0664C107.896 46.7692 108.079 47.215 108.315 47.4035V48.0001H102.744C102.606 47.4392 102.505 46.8696 102.443 46.2952C102.371 45.6289 102.33 44.9596 102.32 44.2895L103.187 43.9205C102.952 44.7707 102.528 45.5579 101.948 46.2245C101.359 46.9162 100.599 47.4734 99.6668 47.896C98.747 48.3048 97.6978 48.5097 96.5194 48.5105ZM98.4991 44.6071C99.2543 44.6071 99.9207 44.443 100.498 44.1147C101.076 43.7735 101.518 43.3047 101.825 42.7081C102.143 42.1107 102.302 41.4305 102.302 40.6677V38.2415L102.744 38.4871C102.467 38.8558 102.103 39.1515 101.684 39.3485C101.27 39.5482 100.71 39.7184 100.003 39.859L98.6414 40.1225C97.7345 40.2982 97.0504 40.5682 96.5892 40.9325C96.1409 41.2951 95.9168 41.8051 95.9168 42.4625C95.9168 43.12 96.159 43.6411 96.6435 44.026C97.1263 44.4134 97.7439 44.6071 98.4991 44.6071ZM72.1922 29.4485H77.887L82.7853 45.3631H81.0694L85.7737 29.4485H91.3095L84.8543 48.0014H78.8944L72.1922 29.4485ZM63.8168 48.5105C61.9651 48.5105 60.3379 48.112 58.9353 47.3148C57.5439 46.5177 56.4651 45.3807 55.6987 43.9038C54.9444 42.4261 54.5672 40.6968 54.5672 38.716C54.5672 36.7351 54.9444 35.0122 55.6987 33.5474C56.4659 32.0688 57.5448 30.9314 58.9353 30.1351C60.3379 29.338 61.9651 28.9394 63.8168 28.9394C65.6685 28.9394 67.2892 29.338 68.6789 30.1351C70.0711 30.9322 71.1444 32.0692 71.8987 33.5461C72.6651 35.0118 73.0483 36.7351 73.0483 38.716C73.0483 40.6968 72.6646 42.4261 71.8974 43.9038C71.1431 45.3807 70.0707 46.5177 68.6801 47.3148C67.2888 48.112 65.6677 48.5105 63.8168 48.5105ZM63.8168 44.431C64.5944 44.431 65.2603 44.2201 65.8146 43.7984C66.3681 43.3638 66.7926 42.7248 67.0883 41.8814C67.3832 41.0251 67.5306 39.97 67.5306 38.716C67.5306 36.8525 67.206 35.44 66.5569 34.4782C65.9086 33.5054 64.9948 33.019 63.8155 33.019C63.0388 33.019 62.3668 33.2358 61.7995 33.6695C61.2461 34.0912 60.822 34.7298 60.5271 35.5852C60.2323 36.4304 60.0849 37.474 60.0849 38.716C60.0849 39.958 60.2323 41.0071 60.5271 41.8634C60.822 42.7197 61.2461 43.3647 61.7995 43.7984C62.3659 44.2201 63.0383 44.431 63.8168 44.431ZM38.9052 22.7847H44.4577V44.071L43.4672 42.928H50.9491C55.6806 42.928 55.0327 48.0001 55.0327 48.0001H38.9052V22.7847Z" fill="#FAFAFA"/>
<path fill-rule="evenodd" clip-rule="evenodd" d="M12.6345 22.5C16.85 22.5 20.269 25.9071 20.269 30.1114V33.0043H22.8099C27.0254 33.0043 30.4444 36.4114 30.4444 40.6157C30.4444 44.8174 27.0267 48.2259 22.8099 48.2259H5V30.1101C5 25.9071 8.41767 22.5 12.6345 22.5Z" fill="#FAFAFA"/>
</g>
<defs>
<clipPath id="clip0_3566_152">
<rect width="150" height="27" fill="white" transform="translate(5 22.5)"/>
</clipPath>
</defs>
</svg>
