<svg width="160" height="32" viewBox="0 0 160 32" fill="none" xmlns="http://www.w3.org/2000/svg">
<path d="M0.39497 1.01882L0 -0.0078125H5.37008C10.2665 -0.0078125 15.005 2.04545 18.4798 5.52031L44.383 31.5815H12.004L2.2113 5.75724C3.61165 8.15344 5.90721 9.70352 8.23795 11.2773C11.8218 13.6972 15.4886 16.173 16.1107 21.8677C16.1896 22.2625 16.4266 22.5785 16.8215 22.6574C22.1916 23.5263 27.4039 25.7373 31.9843 29.3702H32.0632C32.1028 29.3702 32.1225 29.3702 32.1326 29.3602C32.1423 29.3504 32.1423 29.3306 32.1423 29.2913C32.2212 29.2122 32.2212 29.1333 32.1423 29.0544C28.9833 25.7373 25.1926 23.1313 20.8492 21.3939L19.5065 20.8411C18.7957 20.6042 18.4009 19.8934 18.4009 19.1037C18.4319 17.9876 19.4732 17.407 20.77 17.0274V17.0504C21.6022 16.7732 22.5558 16.6176 23.4178 16.4769L23.771 16.4187V16.3775C24.7844 16.164 25.6 15.92 25.8245 15.4708L25.9034 15.2338C24.5607 14.0494 22.9024 13.1806 21.0861 12.7067C21.0861 12.7153 21.0851 12.7265 21.0839 12.7404C21.0746 12.8569 21.0492 13.1693 21.4019 13.7333L21.4044 13.7373C21.411 13.7478 21.4171 13.7585 21.4229 13.7692C21.7671 14.4029 20.9833 15.3711 19.7434 14.2863H19.6645C15.6486 10.6227 12.0885 9.44192 9.06111 8.43776C5.53447 7.26799 2.7306 6.3376 0.771865 2.00221L0.39497 1.01882Z" fill="#FAFAFA"/>
<path d="M47.6997 25.8165C41.3029 25.8165 37.1963 22.4996 37.1963 18.314C37.1963 14.0494 41.5398 10.8115 47.8577 10.8115C54.1756 10.8115 58.5191 14.0494 58.5191 18.156C58.5191 19.9724 57.7294 21.4729 56.1499 22.7365H59.9406L59.0719 24.316C58.5191 25.2636 57.8083 25.8954 56.3078 25.8954H47.6997V25.8165ZM47.8577 22.3416C51.3325 22.3416 54.3335 20.6042 54.3335 18.235C54.3335 15.8658 51.4115 14.1284 47.8577 14.1284C44.3829 14.1284 41.3819 15.8658 41.3819 18.235C41.4608 20.6832 44.3829 22.3416 47.8577 22.3416Z" fill="#FAFAFA"/>
<path d="M75.6566 23.2103H65.627L64.2055 25.7375H59.9409L66.9695 13.6545C67.5224 12.7069 68.3121 11.9961 69.8916 11.9961H71.471C73.0505 11.9961 73.8402 12.7069 74.393 13.6545L81.4217 25.7375H77.1571L75.6566 23.2103ZM67.2854 20.2093H73.9192L70.8392 14.6812C70.7603 14.5232 70.6813 14.5232 70.6023 14.5232C70.5233 14.5232 70.4444 14.5232 70.3654 14.6812L67.2854 20.2093Z" fill="#FAFAFA"/>
<path d="M101.244 11.9961V25.8164H97.5318L86.5545 16.6555V25.8164H82.8428V11.9961H85.212C86.3966 11.9961 87.0284 12.312 87.6601 12.8648L97.5318 21.078V11.9961H101.244Z" fill="#FAFAFA"/>
<path d="M114.59 15.0761V25.8164H110.8V15.0761H103.139V11.9961H122.251V15.0761H114.59Z" fill="#FAFAFA"/>
<path d="M134.649 23.2103H124.541L123.119 25.7375H118.934L125.962 13.6545C126.515 12.7069 127.305 11.9961 128.884 11.9961H130.464C132.043 11.9961 132.833 12.7069 133.386 13.6545L140.414 25.7375H136.15L134.649 23.2103ZM126.278 20.2093H132.912L129.832 14.6812C129.753 14.5232 129.674 14.5232 129.595 14.5232C129.516 14.5232 129.437 14.5232 129.358 14.6812L126.278 20.2093Z" fill="#FAFAFA"/>
<path d="M141.678 24.7896L141.362 24.7107L142.31 21.7097C144.995 22.5784 147.838 22.8943 150.444 22.8943C154.709 22.8943 155.735 22.4204 155.735 21.8676C155.735 21.6307 155.577 21.4728 155.261 21.3938C154.867 21.2358 153.682 20.9989 150.207 20.4461C146.337 19.8143 144.6 19.4984 143.337 18.9456C142.073 18.3928 141.283 17.4451 141.283 16.0236C141.283 14.997 141.836 14.1282 142.626 13.4965C144.126 12.3908 146.653 11.917 149.338 11.917C152.892 11.917 155.814 12.2329 159.131 13.0226L159.447 13.1016L158.657 16.0236C154.946 15.2339 152.971 14.997 150.128 14.997C148.154 14.997 146.811 15.1549 146.101 15.3128C145.706 15.4708 145.548 15.6287 145.548 15.8657C145.548 16.1026 145.706 16.2605 146.101 16.4185C146.574 16.5764 147.285 16.7344 150.997 17.3662C155.104 17.9979 156.446 18.3138 157.552 18.7087C159.052 19.2615 160 20.3671 160 21.7097C160 23.4471 158.657 24.7107 156.367 25.4214C154.946 25.8163 153.05 26.0532 150.918 26.0532C147.522 25.9742 143.968 25.5004 141.678 24.7896Z" fill="#FAFAFA"/>
</svg>
