<svg width="32" height="32" viewBox="0 0 32 32" fill="none" xmlns="http://www.w3.org/2000/svg">
<path d="M13.9143 0.0202318C12.993 0.0421345 12.3171 0.0745212 11.0781 0.150914C10.505 0.185103 9.87946 0.235453 9.43893 0.279525C9.32835 0.291545 9.09703 0.313715 8.92609 0.329875C8.20804 0.400324 7.14195 0.534879 6.69354 0.611339C6.59885 0.627499 6.46009 0.649668 6.38183 0.661688C6.30537 0.671838 6.16848 0.695811 6.08 0.712038C5.99159 0.728198 5.84267 0.756377 5.74825 0.77227C5.41617 0.82863 4.85117 0.943352 4.53138 1.01981C4.4427 1.04198 4.28384 1.08004 4.17927 1.10435C4.07463 1.12832 3.98027 1.15049 3.96825 1.15256C3.37868 1.29319 2.79339 1.577 2.34291 1.945C1.90439 2.30105 1.51234 2.87627 1.31515 3.44748C1.2831 3.53596 1.25071 3.62644 1.24083 3.64861C1.20664 3.72507 1.05773 4.36853 0.951018 4.89573C0.935125 4.98414 0.906945 5.11482 0.890785 5.18734C0.874559 5.25959 0.852723 5.38634 0.838566 5.4688C0.826346 5.55121 0.810386 5.65191 0.800236 5.68997C0.769986 5.80483 0.647384 6.58912 0.568855 7.15832C0.492463 7.7095 0.442113 8.10989 0.398041 8.51602C0.375871 8.71502 0.353701 8.91014 0.349761 8.94847C0.343751 8.98653 0.325521 9.18172 0.307491 9.38098C0.291331 9.57998 0.267359 9.82338 0.255072 9.92408C0.212802 10.294 0.108163 11.9052 0.0560773 13.0417C0.0158778 13.8842 -0.0102319 15.6885 0.00385796 16.6721C0.0179478 17.8989 0.0479305 18.9953 0.0761103 19.3774C0.0863271 19.5321 0.10636 19.8582 0.11838 20.1015C0.1304 20.3448 0.14656 20.6566 0.15671 20.7953C0.202919 21.4913 0.239179 21.9477 0.257142 22.0925C0.267359 22.1812 0.291331 22.4165 0.307491 22.6134C0.323651 22.8106 0.347691 23.046 0.357841 23.1364C0.369861 23.227 0.392031 23.422 0.407923 23.571C0.458273 24.0476 0.496603 24.3593 0.528722 24.5667C0.544882 24.6772 0.573062 24.8664 0.588955 24.989C0.647384 25.4313 0.715697 25.8617 0.790086 26.2562C0.806246 26.3446 0.832356 26.4936 0.850586 26.588C0.884775 26.789 0.963238 27.1894 1.0196 27.4427C1.21258 28.3299 1.29712 28.5952 1.52436 29.0318C1.58666 29.1523 1.66706 29.2932 1.70332 29.3435C1.73745 29.3939 1.7878 29.4661 1.81391 29.5045C1.92863 29.6753 2.25657 30.0092 2.4376 30.1381C2.46758 30.16 2.52601 30.2022 2.56407 30.2325C2.60454 30.2646 2.6426 30.2888 2.65275 30.2888C2.66083 30.2888 2.68093 30.3029 2.69683 30.3191C2.77536 30.3955 3.3286 30.659 3.56572 30.7294C3.61006 30.7435 3.66435 30.7615 3.68652 30.7717C3.73894 30.7957 4.03443 30.87 4.39055 30.9506C4.54547 30.9869 4.70433 31.025 4.74246 31.0351C4.83501 31.0591 5.41824 31.1757 5.85883 31.2563C6.11212 31.3025 6.60513 31.381 6.91471 31.4254C7.03136 31.4412 7.18028 31.4634 7.24659 31.4754C7.48992 31.5177 8.49571 31.6346 9.12722 31.6948C9.35446 31.717 9.63405 31.7431 9.75064 31.755C9.93976 31.7751 10.1328 31.7913 11.058 31.8576C11.1968 31.8677 11.5127 31.8858 11.762 31.898C12.0114 31.91 12.3594 31.928 12.5365 31.9382C13.9685 32.0206 18.0636 32.0206 19.4755 31.9382C19.6526 31.9262 20.0006 31.91 20.25 31.898C20.6783 31.878 20.8353 31.8677 21.507 31.8174C22.3678 31.7512 23.6332 31.6283 24.0615 31.5681C24.1841 31.55 24.3954 31.5218 24.5341 31.5036C25.047 31.4374 25.751 31.3307 26.1532 31.2563C26.5938 31.1757 27.177 31.0591 27.2696 31.0351C27.3077 31.025 27.4666 30.9869 27.6215 30.9506C27.9694 30.8721 28.2713 30.7957 28.3255 30.7717C28.3923 30.7476 28.4594 30.7241 28.5266 30.7012C28.6915 30.647 29.2387 30.3874 29.2849 30.3431C29.299 30.329 29.3392 30.299 29.3734 30.2787C29.5304 30.1803 29.6026 30.124 29.7456 29.9951C29.9065 29.8482 30.1298 29.607 30.184 29.5246C30.2021 29.4964 30.2503 29.4281 30.2905 29.3738C30.3327 29.3175 30.3669 29.2671 30.3669 29.2591C30.3669 29.2509 30.3992 29.1946 30.4373 29.1343C30.4757 29.0741 30.5219 28.9854 30.5401 28.9371C30.5602 28.891 30.5802 28.8406 30.5884 28.8307C30.6264 28.7804 30.7673 28.38 30.8276 28.1528C30.9222 27.8009 31.0991 26.9701 31.1635 26.5778C31.1797 26.4773 31.1977 26.3829 31.2037 26.3668C31.2219 26.3224 31.3326 25.6325 31.433 24.9287C31.4551 24.7738 31.4773 24.6189 31.4833 24.5868C31.4995 24.4941 31.5718 23.8767 31.6041 23.5509C31.62 23.39 31.6422 23.2048 31.6542 23.1385C31.6665 23.072 31.6884 22.855 31.7045 22.6557C31.7207 22.4567 31.7429 22.2112 31.7528 22.1126C31.7648 22.0122 31.7831 21.7829 31.795 21.5998C31.807 21.4167 31.8253 21.1916 31.8352 21.0969C31.8474 21.0025 31.8694 20.6545 31.8856 20.3227C31.9038 19.9907 31.9239 19.5824 31.9359 19.4176C32.0264 17.9552 32.0264 14.1176 31.9359 12.6092C31.9257 12.4381 31.9077 12.1024 31.8957 11.865C31.8835 11.6276 31.8655 11.3138 31.8553 11.1709C31.8433 11.0262 31.8173 10.6701 31.795 10.3766C31.7728 10.0829 31.7507 9.80722 31.7447 9.76314C31.7387 9.71874 31.7207 9.52368 31.7045 9.33063C31.6884 9.13765 31.6703 8.95655 31.6643 8.92844C31.6583 8.90026 31.6362 8.71502 31.614 8.51602C31.5619 8.03523 31.4974 7.50442 31.4833 7.44212C31.4773 7.41394 31.4551 7.25301 31.433 7.08787C31.3344 6.33583 31.1516 5.28777 30.9945 4.57386C30.9723 4.47316 30.9363 4.31036 30.9142 4.2118C30.8578 3.95431 30.7913 3.69482 30.7694 3.64861C30.7592 3.62644 30.7412 3.57221 30.7271 3.52788C30.6828 3.37916 30.4595 2.88228 30.4032 2.80375C30.395 2.79173 30.3309 2.69731 30.2623 2.59274C30.1196 2.37751 29.7537 1.99535 29.5343 1.83442C29.1 1.51463 28.6171 1.29734 27.9938 1.14448C27.8863 1.11822 27.779 1.09135 27.6719 1.06388C27.5975 1.04198 27.4485 1.00966 27.1287 0.943352C27.0381 0.924351 26.9476 0.904874 26.8572 0.884923C26.469 0.7905 25.2058 0.585229 24.3833 0.480657C24.2182 0.460557 24.0555 0.438387 24.0213 0.430574C23.9608 0.418287 23.6692 0.388305 23.076 0.329875C22.9108 0.313715 22.6837 0.289675 22.5731 0.279525C22.4625 0.267506 22.2632 0.249476 22.1307 0.237256C21.9979 0.227373 21.7807 0.209076 21.6479 0.199193C21.1974 0.160863 19.9464 0.088611 19.2544 0.0582944C17.9167 -6.834e-05 15.4468 -0.018098 13.9143 0.0202318ZM5.05231 13.6109C5.06432 13.6208 5.12275 13.6391 5.18092 13.6531C5.2897 13.6792 5.44255 13.7496 5.557 13.826C5.64755 13.8863 5.8609 14.1156 5.90291 14.1962C5.92327 14.2364 5.94518 14.2726 5.95119 14.2786C5.95746 14.2847 5.97543 14.3248 5.99159 14.3691C6.00568 14.4132 6.02364 14.4597 6.03386 14.4696C6.0599 14.5079 6.09021 14.7471 6.09021 14.9242C6.09021 15.0972 6.06384 15.3003 6.02971 15.3747C5.9212 15.6241 5.86878 15.7065 5.73209 15.8515C5.60528 15.9822 5.55313 16.0224 5.38018 16.1069C5.23928 16.1773 5.13865 16.2136 5.05832 16.2214C4.99388 16.2295 4.93752 16.2435 4.93151 16.2517C4.91748 16.2759 4.48103 16.2759 4.48103 16.2517C4.48103 16.2435 4.43068 16.2295 4.36624 16.2214C4.30394 16.2136 4.22568 16.1953 4.19149 16.1812C4.14788 16.1616 4.1036 16.1435 4.05874 16.127C4.02041 16.1129 3.98415 16.0967 3.97814 16.0907C3.97213 16.0827 3.94188 16.0647 3.90769 16.0485C3.7911 15.9903 3.54976 15.7226 3.47938 15.5758C3.44105 15.4973 3.40506 15.4209 3.39491 15.405C3.32653 15.2681 3.31451 14.6446 3.37868 14.4998C3.39698 14.4615 3.42302 14.3973 3.43711 14.3589C3.4512 14.3209 3.46736 14.2846 3.47337 14.2786C3.47938 14.2726 3.50342 14.2322 3.52559 14.1881C3.56392 14.1135 3.80311 13.8561 3.8373 13.8561C3.84532 13.8561 3.86361 13.842 3.8777 13.824C3.91577 13.7817 4.11089 13.6873 4.22962 13.6571C4.28591 13.6429 4.34828 13.6228 4.37045 13.6127C4.39262 13.6028 4.44684 13.5927 4.49098 13.5866C4.60964 13.5746 5.0262 13.5927 5.05231 13.6109ZM26.9678 15.0127V16.0283H23.0658V14.6688L23.2831 14.6344C23.7639 14.5601 24.0635 14.5098 24.0816 14.4977C24.0936 14.4897 24.1922 14.4737 24.3027 14.4597C24.4133 14.4456 24.514 14.4273 24.524 14.4192C24.5362 14.4114 24.6306 14.3932 24.7353 14.3791C24.8398 14.3671 24.9765 14.3428 25.0371 14.3269C25.0973 14.3128 25.2241 14.2906 25.3185 14.2786C25.4132 14.2664 25.5076 14.2484 25.5298 14.2403C25.5519 14.2304 25.6524 14.2121 25.751 14.198C25.8516 14.186 25.9641 14.168 26.0024 14.1558C26.0405 14.1458 26.1855 14.1177 26.3243 14.0955C26.4631 14.0733 26.6441 14.0434 26.7265 14.0292C26.8089 14.0131 26.8974 14.0011 26.9235 13.999L26.9678 13.9969V15.0127ZM10.3138 15.9097V17.1145H12.3252V18.9047H10.312L10.3198 20.7693C10.3261 22.7786 10.3219 22.68 10.4307 22.9272C10.5131 23.1185 10.7463 23.3135 10.9474 23.3618C10.9816 23.3699 11.0199 23.3858 11.0361 23.3981C11.0742 23.4281 11.8888 23.4281 11.9251 23.396C11.941 23.384 12.0135 23.3678 12.0899 23.3597L12.2248 23.3456V25.1098L12.1703 25.1338C12.1202 25.1559 11.8888 25.1922 11.5711 25.2303C11.1186 25.2827 10.2937 25.2887 10.2455 25.2383C10.2334 25.2284 10.2014 25.2203 10.1711 25.2203C10.0926 25.2203 9.7668 25.1598 9.74256 25.1418C9.73054 25.1338 9.67632 25.1136 9.61996 25.1017C9.56574 25.0876 9.51145 25.0693 9.49923 25.0615C9.48928 25.0513 9.44314 25.0333 9.3988 25.0192C9.35446 25.0052 9.31426 24.9869 9.30825 24.9809C9.30224 24.9749 9.26598 24.9527 9.22765 24.9305C9.06071 24.8421 9.01062 24.8101 8.92195 24.7354C8.86979 24.6932 8.82151 24.6572 8.81136 24.6572C8.79126 24.6551 8.63841 24.4881 8.51788 24.3353C8.42533 24.2166 8.28837 23.9894 8.24216 23.8726C8.226 23.8345 8.20804 23.7982 8.20203 23.7922C8.19395 23.7862 8.17385 23.7239 8.15375 23.6513C8.13552 23.5791 8.11148 23.5026 8.10133 23.4805C8.09144 23.4583 8.06714 23.3678 8.05124 23.2794C8.0342 23.1953 8.01604 23.1115 7.99675 23.0279C7.98267 22.9677 7.97271 22.2595 7.9667 20.9201L7.95869 18.9047H6.79397V17.1145H7.96076V15.087L8.09739 15.073C8.17178 15.0651 8.24216 15.051 8.25231 15.0429C8.26433 15.0348 8.36296 15.0169 8.47354 15.0027C8.58412 14.9887 8.68482 14.9683 8.69477 14.9605C8.70679 14.9524 8.83353 14.9302 8.97643 14.9122C9.12121 14.8919 9.24802 14.87 9.2579 14.8619C9.26992 14.8538 9.33643 14.8397 9.40868 14.8337C9.50321 14.8224 9.59721 14.807 9.69041 14.7876C9.90563 14.7432 10.2817 14.6847 10.2997 14.6949C10.3078 14.6989 10.3138 15.2461 10.3138 15.9097ZM16.9816 16.9233C17.263 16.9395 17.581 16.9758 17.605 16.9938C17.617 17.0018 17.6653 17.016 17.7156 17.022C17.8303 17.0402 18.11 17.1226 18.2788 17.1909C18.4197 17.2473 18.7334 17.4041 18.7816 17.4445C18.7979 17.4565 18.8339 17.4805 18.862 17.4927C18.8902 17.5068 18.9789 17.577 19.0571 17.6457C19.1356 17.716 19.2082 17.7763 19.218 17.7802C19.2484 17.7943 19.6062 18.2289 19.6062 18.2529C19.6062 18.2589 19.6245 18.2913 19.6467 18.3212C19.6889 18.3817 19.8678 18.7297 19.8678 18.7519C19.8678 18.7597 19.884 18.804 19.9059 18.8502C19.926 18.8967 19.9502 18.9671 19.9584 19.0052C19.9664 19.0435 19.9806 19.0837 19.9884 19.0956C19.9964 19.1059 20.0147 19.17 20.0288 19.2365C20.0408 19.3028 20.0569 19.3714 20.063 19.3873C20.071 19.4035 20.089 19.4898 20.1052 19.5785C20.1293 19.7113 20.1352 20.2121 20.1433 22.4285L20.1514 25.1196H17.9571L17.9551 24.8823C17.953 24.7537 17.9469 24.5667 17.9389 24.468L17.9268 24.2871L17.8685 24.3674C17.7761 24.4903 17.4722 24.7797 17.3517 24.8601C17.088 25.0333 17.0178 25.0753 16.9453 25.0996C16.901 25.1116 16.8428 25.1359 16.8146 25.1517C16.7844 25.1658 16.71 25.1901 16.6495 25.2021C16.5892 25.2161 16.529 25.2344 16.5189 25.2422C16.4164 25.3187 15.1491 25.3168 15.0505 25.2404C15.0406 25.2324 14.9681 25.2144 14.8896 25.2002C14.8132 25.1862 14.7226 25.164 14.6885 25.1478C14.6565 25.1338 14.5698 25.0975 14.4996 25.0693C14.4187 25.0341 14.3395 24.9952 14.2623 24.9527C14.2088 24.9197 14.1544 24.8882 14.0992 24.8583C14.0147 24.8119 13.9866 24.7858 13.7573 24.5564C13.522 24.3212 13.4917 24.2891 13.4917 24.267C13.4917 24.2589 13.4656 24.2145 13.4356 24.1683C13.4033 24.1222 13.3571 24.0377 13.3328 23.9832C13.3088 23.9271 13.2765 23.8606 13.2624 23.8324C13.2465 23.8042 13.2244 23.7319 13.2103 23.6714C13.1962 23.6111 13.1782 23.5509 13.1701 23.5408C13.1479 23.5126 13.1096 23.2269 13.1096 23.1022C13.1096 23.0442 13.0997 22.9857 13.0877 22.9737C13.0634 22.9494 13.0694 22.8691 13.1317 22.3841C13.1438 22.2897 13.162 22.2032 13.1701 22.1932C13.1782 22.1812 13.1961 22.1288 13.2081 22.0746C13.2342 21.9699 13.2888 21.8332 13.3451 21.7305C13.3631 21.6963 13.3872 21.6501 13.3994 21.6259C13.4114 21.5998 13.4276 21.5797 13.4374 21.5797C13.4455 21.5797 13.4515 21.5677 13.4515 21.5536C13.4515 21.5315 13.6728 21.2438 13.7111 21.2177C13.7191 21.2117 13.7333 21.1916 13.7393 21.1715C13.7473 21.1493 13.7713 21.1293 13.7935 21.1233C13.8157 21.1172 13.8337 21.105 13.8337 21.0969C13.8337 21.0768 14.1717 20.8113 14.2862 20.745C14.3686 20.6947 14.5539 20.6003 14.8233 20.4714C14.8617 20.4513 15.2375 20.3307 15.4027 20.2844C15.4629 20.2664 15.5816 20.2421 15.664 20.2301C15.7465 20.216 15.825 20.1999 15.8351 20.1921C15.8472 20.1839 15.9677 20.1657 16.1067 20.1537C16.2455 20.1416 16.4164 20.1216 16.4888 20.1114C16.7745 20.0692 17.7779 20.0773 17.8846 20.1216C17.9209 20.1375 17.9227 20.1296 17.9087 19.9585C17.9008 19.86 17.8867 19.7754 17.8786 19.7694C17.8685 19.7634 17.8565 19.7253 17.8484 19.6849C17.8343 19.6106 17.7578 19.4478 17.6856 19.337C17.6392 19.2668 17.444 19.0654 17.4219 19.0654C17.4141 19.0654 17.3799 19.0454 17.3455 19.0193C17.257 18.9548 17.1144 18.8906 17.0278 18.8745C16.9855 18.8664 16.9513 18.8523 16.9513 18.8442C16.9513 18.7558 15.652 18.7417 15.2619 18.8283C15.2115 18.8382 15.0949 18.8603 15.0004 18.8766C14.9057 18.8924 14.8113 18.9146 14.7891 18.9248C14.767 18.9347 14.6947 18.953 14.6282 18.965C14.562 18.977 14.4894 18.9952 14.4673 19.0052C14.4451 19.0153 14.3648 19.0375 14.2883 19.0555C14.2119 19.0735 14.1394 19.0936 14.1274 19.1037C14.1154 19.1119 14.0611 19.1319 14.0048 19.146C13.9506 19.1601 13.8942 19.1802 13.8841 19.1883C13.872 19.1963 13.8177 19.2143 13.7633 19.2285C13.7072 19.2405 13.6286 19.2686 13.5885 19.2887C13.5462 19.3109 13.5079 19.327 13.5019 19.327C13.4959 19.327 13.4917 18.9065 13.4917 18.3938C13.4917 17.6676 13.4979 17.4565 13.518 17.4403C13.5321 17.4283 13.5885 17.4083 13.6427 17.3942C13.6991 17.3822 13.7534 17.3639 13.7633 17.3558C13.7755 17.3478 13.8418 17.3238 13.9143 17.3055C13.9866 17.2854 14.0549 17.2634 14.0651 17.2554C14.0771 17.2452 14.1394 17.229 14.2038 17.2152C14.2704 17.2012 14.3387 17.1829 14.3546 17.1729C14.3729 17.1649 14.4553 17.1427 14.5377 17.1247C14.6018 17.1122 14.6655 17.0981 14.7289 17.0825C14.7508 17.0762 14.8635 17.0582 14.9801 17.042C15.097 17.0261 15.2196 17.0039 15.2516 16.9938C15.3685 16.9577 16.4223 16.8913 16.6597 16.9054C16.7259 16.9092 16.871 16.9174 16.9816 16.9234V16.9233ZM5.88882 21.1172V25.1196H3.53574V17.1145H5.88882V21.1172ZM23.6692 19.6085C23.6692 21.99 23.6793 22.4507 23.7276 22.5151C23.7375 22.525 23.7498 22.5652 23.7578 22.6036C23.786 22.7543 23.9167 22.9737 24.0654 23.1224C24.1439 23.2029 24.2323 23.2733 24.2605 23.2812C24.2907 23.2875 24.3129 23.2995 24.3129 23.3076C24.3129 23.3154 24.3833 23.3436 24.4697 23.3717C24.5986 23.4122 24.6669 23.42 24.868 23.42C25.0089 23.42 25.1314 23.4101 25.1596 23.3981C25.1857 23.384 25.248 23.3639 25.2984 23.3498C25.3487 23.3358 25.4393 23.2935 25.4995 23.253C25.6122 23.1808 25.8214 22.9878 25.8214 22.9554C25.8214 22.9455 25.8496 22.9012 25.8817 22.8589C25.9158 22.8146 25.9422 22.7705 25.9422 22.7585C25.9422 22.7462 25.9602 22.704 25.9802 22.6638C26.0024 22.6236 26.0264 22.5553 26.0345 22.513C26.0405 22.4687 26.0546 22.4246 26.0648 22.4144C26.1151 22.35 26.1232 21.9439 26.1232 19.5845V17.1145H28.4763V25.1197H27.362C26.4913 25.1197 26.2417 25.1137 26.2297 25.0936C26.2216 25.0816 26.2117 24.8904 26.2075 24.6712C26.2035 24.454 26.1935 24.275 26.1856 24.275C26.1776 24.275 26.1533 24.2991 26.1293 24.3293C26.0166 24.4822 25.8395 24.6551 25.5619 24.8844C25.5217 24.9164 25.4393 24.9608 25.2583 25.0493C25.1758 25.0894 25.0854 25.1358 25.0572 25.1499C25.029 25.164 24.9526 25.1861 24.886 25.2002C24.8198 25.2143 24.7614 25.2323 24.7554 25.2404C24.7353 25.2705 24.3793 25.3007 24.0274 25.3007C23.6815 25.3007 23.3998 25.2766 23.3173 25.2422C23.2951 25.2324 23.2188 25.2081 23.1462 25.1901C23.074 25.1721 23.0075 25.1478 22.9955 25.1397C22.9856 25.1317 22.9373 25.1116 22.8909 25.0975C22.8426 25.0854 22.8045 25.0675 22.8045 25.0594C22.8045 25.0513 22.7683 25.0334 22.7239 25.0192C22.6799 25.0052 22.6435 24.9869 22.6435 24.9788C22.6435 24.971 22.6214 24.9548 22.5953 24.9427C22.4224 24.8643 22.0301 24.4962 21.8652 24.2589C21.7645 24.1141 21.6096 23.8243 21.5775 23.7179C21.5655 23.6756 21.5413 23.6133 21.5272 23.581C21.5131 23.5468 21.4891 23.4745 21.4768 23.42C21.4648 23.3639 21.4468 23.3054 21.4366 23.2854C21.4267 23.2671 21.4084 23.1727 21.3965 23.0741C21.3845 22.9776 21.3623 22.879 21.3503 22.8568C21.3321 22.8268 21.324 22.1087 21.32 19.9645L21.314 17.1145H23.6692L23.6692 19.6085Z" fill="white"/>
<path d="M16.7199 21.5619C16.6216 21.5718 16.5209 21.5879 16.4988 21.5979C16.4766 21.6102 16.4043 21.6281 16.3378 21.6422C16.2737 21.6542 16.1871 21.6785 16.1469 21.6965C15.845 21.8272 15.6983 21.9138 15.5978 22.0184C15.5013 22.1191 15.4045 22.3061 15.3886 22.4227C15.3844 22.4628 15.3703 22.5152 15.3584 22.5372C15.3362 22.5836 15.3443 22.7263 15.3805 22.9133C15.4207 23.1165 15.5817 23.364 15.7243 23.4384C15.9778 23.5691 16.0261 23.5891 16.167 23.6114C16.4202 23.6494 16.9031 23.6275 17.0077 23.5712C17.0257 23.561 17.1003 23.5268 17.1725 23.4947C17.2451 23.4606 17.3395 23.406 17.3838 23.3719C17.4282 23.3377 17.4783 23.2975 17.4965 23.2834C17.611 23.1971 17.8224 22.8471 17.8505 22.7023C17.8565 22.666 17.8726 22.6238 17.8847 22.6076C17.8987 22.5896 17.9087 22.4044 17.9128 22.0726L17.9208 21.5657L17.8121 21.5538C17.6652 21.5356 16.9414 21.5418 16.7199 21.5619Z" fill="white"/>
</svg>
